# xmcd
#
# Track frame offsets:
#	150
#	17370
#	36727
#	52200
#	54392
#	73950
#
# Disc length: 1142 seconds
#
# Revision: 1
# Processed by: cddbd v1.5.1PL0 Copyright (c) Steve Scherf et al.
# Submitted via: CDex 1.50Beta5
#
DISCID=57047406
DTITLE=Soon - Cool! Mad! Standard!
DYEAR=1996
DGENRE=Pop
TTITLE0=I'm A Man
TTITLE1=Always Something There To Remind Me
TTITLE2=愛しのロージー
TTITLE3=September(Do You Remember?)
TTITLE4=Never Gonna In Love Again
TTITLE5=September
EXTD=
EXTT0=
EXTT1=
EXTT2=
EXTT3=
EXTT4=
EXTT5=
PLAYORDER=
